<?xml version="1.0" encoding="UTF-8"?><svg id="Ebene_2" xmlns="http://www.w3.org/2000/svg" viewBox="0 0 1126.23 147.6"><defs><style>.cls-1{fill:#17183c;}</style></defs><g id="Layer_1"><path class="cls-1" d="M542.24,3.68c20.38,8.38,31.23,23.47,32.13,44.94,.68,16.29,.6,32.65-.12,48.94-.97,21.63-15.38,39.51-35.37,45.36-21.92,6.43-47.52-1.34-59.94-18.19-3.02-4.1-2.57-8.39,1.2-11.45,4.19-3.41,9.55-3,13.24,1.58,5.12,6.36,11.49,10.39,19.39,12.32,23.46,5.73,42.59-8.61,43.51-32.73,.13-3.48,.02-6.98,.02-11.15-.81,.75-1.31,1.05-1.59,1.49-17.2,27.7-62.12,25.05-77.29-7.57-10.27-22.09-7.81-59.05,24.95-72.67,12.96-5.38,26.21-5.46,39.88-.87m8.87,68.38c5.83-9.88,6.76-20.45,3.73-31.28-4.23-15.12-17.74-24.6-32.94-23.61-16.47,1.08-28.31,11.86-30.85,28.08-2.78,17.76,4.91,33.27,19.42,39.22,14.67,6.02,30.63,1.34,40.64-12.42Z"/><path class="cls-1" d="M718.88,53.17c-4.21-12.5-8.3-24.63-12.28-36.79-.71-2.18-1.18-4.5-1.37-6.79-.29-3.56,.61-6.7,4.54-7.9,3.84-1.16,7.45-.64,9.86,2.74,1.6,2.25,2.77,4.93,3.63,7.57,6.04,18.48,11.95,37,17.91,55.51,.4,1.25,.91,2.46,1.63,4.41,5.92-19.97,11.63-39.22,17.34-58.48,.42-1.43,.77-2.89,1.22-4.32,1.69-5.35,4.91-8.03,9.54-8,4.55,.03,7.96,2.82,9.38,8.18,3.07,11.57,5.99,23.17,8.96,34.77,2.4,9.34,4.79,18.67,7.49,29.17,1.03-2.87,1.77-4.76,2.38-6.68,6.04-18.83,12.05-37.66,18.07-56.5,1.32-4.12,3.19-7.71,7.98-8.66,5.59-1.11,9.72,2.11,9.53,7.77-.07,2.12-.68,4.27-1.35,6.3-8.71,26.34-17.47,52.67-26.23,79-.21,.63-.49,1.24-.71,1.86-1.6,4.46-4.76,6.74-9.51,6.49-4.75-.24-7.46-2.79-8.69-7.45-5.66-21.36-11.48-42.69-17.47-64.88-.73,1.52-1.28,2.36-1.54,3.28-5.73,20.14-11.42,40.29-17.15,60.43-1.72,6.04-4.92,8.81-10.01,8.63-4.73-.16-7.54-2.67-9.01-7.19-4.57-14.07-9.31-28.08-14.13-42.48Z"/><path class="cls-1" d="M40.52,85.79c12.29,3.64,23.31,1.8,33.83-4.74,2.35-1.46,5.84-2.62,8.29-1.98,2.59,.68,5.66,3.33,6.46,5.79,.67,2.08-.85,6-2.7,7.59-15.25,13.1-42.62,14.85-61.2,4.32C6.91,86.41-2.72,65.7,.67,44.04,5.75,11.63,34.91-6.86,65.83,2.73c16.91,5.24,28.66,20.5,30.4,39.47,1.37,14.93-.08,16.52-15.02,16.52-20.97,0-41.94,0-62.9,0-.31,11.04,8.25,21.5,22.22,27.07M61.04,18.17c-25-7.02-41.89,9.15-42.6,25.34h61.12c-2.04-11.45-6.76-20.45-18.52-25.34Z"/><path class="cls-1" d="M1051.38,94.7c-18.67-13.32-24.12-31.78-20.69-53,3.19-19.71,14.66-33.28,34.11-39.09,32.92-9.84,61.3,11.53,61.44,46.04,.03,7.08-2.79,10.04-9.93,10.06-21.17,.05-42.33,.02-63.5,.02-1.79,0-3.57,0-5.41,0,2.02,18.41,20.37,31.87,39.34,28.56,5.9-1.03,11.43-4.19,17.13-6.37,1.98-.76,3.92-1.92,5.97-2.17,4.3-.51,7.5,1.6,9.04,5.58,1.51,3.91-.47,6.79-3.68,8.87-19.14,12.4-39.01,14.14-59.66,3.98-1.34-.66-2.57-1.53-4.17-2.48m.89-64.22c-1.82,4.21-3.64,8.42-5.64,13.06h62.25c-1.82-13.88-9.11-22.93-20.82-26.07-13.51-3.62-27,1.1-35.79,13.01Z"/><path class="cls-1" d="M332.23,58.72c-19.14,0-37.78,0-56.44,0,1.26,15.96,15.18,28.08,32.98,28.93,8.42,.4,16-2.13,23.18-6.47,2.28-1.38,5.51-2.8,7.76-2.19,2.79,.75,5.79,3.12,7.3,5.63,1.81,3-.01,6.13-2.93,8.11-18.22,12.36-37.74,14.9-57.73,5.63-19.03-8.82-28.03-24.79-28.23-45.65-.26-26.68,14.94-46.25,39.66-51.29,31.93-6.52,58.36,16.38,56.64,49.07-.26,5.02-3.01,7.92-8.2,8.17-4.49,.22-8.99,.06-13.99,.06m-17.5-14.93h22.36c-1.57-17.63-13.91-28.06-31.64-27.16-16.12,.81-29.38,13.06-29.14,27.16h38.42Z"/><path class="cls-1" d="M128.61,61.81c0-16.99-.02-33.48,0-49.97,.02-8.72,2.96-11.67,11.78-11.63,13.82,.05,27.64,.02,41.46,.37,24.05,.62,41.12,17.18,42.13,44.09,.61,16.14,.23,32.31,.13,48.47-.04,6.39-3.97,10.05-10.01,9.87-5.77-.17-8.9-3.68-8.93-10.27-.06-15.33,.13-30.65-.09-45.98-.21-15.19-7.75-25.33-21.04-28.39-7.62-1.75-15.25-1.44-22.44,2.05-9.25,4.48-14.08,11.76-14.03,22.23,.09,16.66,.07,33.32,0,49.97-.04,6.94-3.25,10.35-9.34,10.38-6.11,.02-9.48-3.4-9.57-10.21-.14-10.16-.04-20.32-.04-30.98Z"/><path class="cls-1" d="M970.79,17.92c-7.58-1.5-14.67-1.44-21.55,1.24-3.88,1.51-6.97,3.81-7.14,8.62-.17,4.79,1.98,8.32,6.23,9.81,6.87,2.42,14,4.06,20.97,6.21,6.18,1.91,12.49,3.59,18.36,6.21,9.14,4.07,14.93,11.17,15.47,21.51,.56,10.85-3.9,19.4-13.03,25.35-8.57,5.59-18.24,7.07-28.19,6.79-13.9-.4-27.19-3.33-38.06-12.61-2.27-1.94-3.88-5.84-3.97-8.89-.13-4.24,3.57-7.09,7.43-7.57,2.89-.36,6.86,.54,8.95,2.43,10.64,9.65,22.94,11.3,36.34,8.77,1.92-.36,3.84-1.15,5.57-2.09,8.51-4.6,9.12-14.11,.78-19.08-4.61-2.75-10.1-4.09-15.29-5.76-7.88-2.54-16.15-4.13-23.72-7.37-10.03-4.29-16.18-12.04-16.05-23.63,.12-11.47,6.64-18.73,16.44-22.89,16.38-6.95,32.86-6.41,48.56,2.19,4.09,2.24,7.83,5.76,10.64,9.51,3.86,5.17,.34,11.68-6.11,11.42-3.22-.13-6.46-2.03-9.52-3.48-4.31-2.04-8.47-4.41-13.1-6.7Z"/><path class="cls-1" d="M681.54,40.16c-15,33.74-29.83,67.15-44.68,100.54-3.01,6.77-6.52,8.33-12.43,5.65-5.51-2.5-6.64-6.29-3.75-12.83,5.38-12.15,10.72-24.32,16.28-36.39,1.39-3.02,1.32-5.36-.27-8.34-12.98-24.34-25.78-48.78-38.63-73.2-3.26-6.21-2.4-10.61,2.56-13.27,5.01-2.69,9.78-.81,12.91,5.37,11.03,21.79,21.98,43.62,33.31,66.12,.98-2.04,1.76-3.55,2.45-5.11,9.03-20.35,18.02-40.71,27.08-61.04,2.75-6.18,6.59-7.84,12.29-5.54,5.17,2.08,6.93,5.92,4.68,11.24-3.75,8.87-7.76,17.64-11.82,26.79Z"/><path class="cls-1" d="M405.15,79.81c0,4.5,.04,8.5,0,12.49-.09,7.39-3.03,10.63-9.55,10.56-6.41-.06-9.17-3.04-9.18-10.33-.05-26.99-.05-53.98,0-80.97,.01-6.99,3.18-10.4,9.31-10.44,6.03-.04,8.87,2.91,9.43,9.77,.04,.49,.1,.99,.23,2.32,1.51-1.3,2.63-2.31,3.81-3.27,11.55-9.37,24.56-12.15,38.87-8.22,2.47,.68,5.42,1.89,6.76,3.82,1.46,2.12,2.34,5.72,1.55,8-.71,2.03-3.87,3.86-6.28,4.45-2.41,.6-5.23-.43-7.87-.77-8.21-1.03-16.32-.92-23.99,2.64-8.44,3.92-13.19,10.29-13.1,19.96,.12,13.16,.03,26.32,.03,39.98Z"/><path class="cls-1" d="M883.06,92.35c-.91,7.5-3.62,10.41-9.35,10.51-5.75,.1-9.56-3.27-9.58-9.1-.09-27.83-.08-55.66,0-83.49,.02-5.33,3.5-8.74,8.66-9.12,5.01-.37,9.11,2.74,10.03,7.78,.3,1.62,.23,3.32,.23,4.98,.01,26,0,52,0,78.44Z"/></g></svg>